# AST/ASF file generated using VICON BodyLanguage
# -----------------------------------------------
:version 1.10
:name VICON
:units
  mass 1.0
  length 0.45
  angle deg
:documentation
   .ast/.asf automatically generated from VICON data using
   VICON BodyBuilder and BodyLanguage model FoxedUp or BRILLIANT.MOD
:root
   order TX TY TZ RX RY RZ
   axis XYZ
   position 0 0 0  
   orientation 0 0 0 
:bonedata
  begin
     id 1 
     name lhipjoint
     direction 0.561145 -0.797705 0.220866 
     length 2.46425 
     axis 0 0 0  XYZ
  end
  begin
     id 2 
     name lfemur
     direction 0.34202 -0.939693 0  
     length 7.95556  
     axis 0 0 20  XYZ
    dof rx ry rz
    limits (-160.0 20.0)
           (-70.0 70.0)
           (-60.0 70.0)
  end
  begin
     id 3 
     name ltibia
     direction 0.34202 -0.939693 0   
     length 7.9832   
     axis 0 0 20   XYZ
    dof rx
    limits (-10.0 170.0)
  end
  begin
     id 4 
     name lfoot
     direction 0.0723927 -0.198897 0.977343   
     length 2.23085   
     axis -90 7.62852e-016 20   XYZ
    dof rx rz
    limits (-45.0 90.0)
           (-70.0 20.0)
  end
  begin
     id 5 
     name ltoes
     direction 1.53826e-011 -4.21988e-011 1   
     length 1.12127   
     axis -90 7.62852e-016 20   XYZ
    dof rx
    limits (-90.0 20.0)
  end
  begin
     id 6 
     name rhipjoint
     direction -0.610499 -0.763299 0.21134   
     length 2.57533  
     axis 0 0 0  XYZ 
  end
  begin
     id 7 
     name rfemur
     direction -0.34202 -0.939693 0   
     length 8.65257   
     axis 0 0 -20   XYZ
    dof rx ry rz
    limits (-160.0 20.0)
           (-70.0 70.0)
           (-70.0 60.0)
  end
  begin
     id 8 
     name rtibia
     direction -0.342021 -0.939692 0   
     length 7.37807   
     axis 0 0 -20   XYZ
    dof rx
    limits (-10.0 170.0)
 end
 begin
     id 9 
     name rfoot
     direction -0.0239304 -0.0543852 0.998233   
     length 1.87018  
     axis -90 -7.62852e-016 -20   XYZ
    dof rx rz
    limits (-45.0 90.0)
           (-20.0 70.0)
  end
  begin
     id 10 
     name rtoes
     direction -1.53584e-011 -4.2242e-011 1   
     length 0.951568   
     axis -90 -7.62852e-016 -20   XYZ
    dof rx
    limits (-90.0 20.0)
  end
  begin
     id 11 
     name lowerback
     direction 0.00322089 0.999033 0.0438587   
     length 2.07568   
     axis 0 0 0   XYZ
    dof rx ry rz
    limits (-20.0 45.0)
           (-30.0 30.0)
           (-30.0 30.0)
  end
  begin
     id 12 
     name upperback
     direction -0.00321932 0.999732 -0.0229403   
     length 2.06253   
     axis 0 0 0   XYZ
    dof rx ry rz
    limits (-20.0 45.0)
           (-30.0 30.0)
           (-30.0 30.0)
  end
  begin
     id 13 
     name thorax
     direction -0.00537537 0.998955 -0.0453918   
     length 2.06975   
     axis 0 0 0   XYZ
    dof rx ry rz
    limits (-20.0 45.0)
           (-30.0 30.0)
           (-30.0 30.0)
  end
  begin
     id 14 
     name lowerneck
     direction -0.00013604 0.994111 0.108363   
     length 1.50836   
     axis 0 0 0   XYZ
    dof rx ry rz
    limits (-20.0 45.0)
           (-30.0 30.0)
           (-30.0 30.0)
  end
  begin
     id 15 
     name upperneck
     direction 0.0397262 0.983859 -0.174482   
     length 1.53037   
     axis 0 0 0   XYZ
    dof rx ry rz
    limits (-20.0 45.0)
           (-30.0 30.0)
           (-30.0 30.0)
  end
  begin
     id 16
     name head
     direction 0.0109991 0.997082 -0.0755378  
     length 1.56928  
     axis 0 0 0   XYZ
    dof rx ry rz
    limits (-20.0 45.0)
           (-30.0 30.0)
           (-30.0 30.0)
  end
  begin
     id 17 
     name lclavicle
     direction 0.964749 0.254 -0.068874  
     length 3.26503  
     axis 0 0 0   XYZ
    dof ry rz
    limits (-20.0 10.0)
           (0.0 20.0)
  end
  begin
     id 18 
     name lhumerus
     direction 1 -4.48941e-011 -2.05079e-027   
     length 5.68236   
     axis 180 -30 -90   XYZ
    dof rx ry rz
    limits (-60.0 90.0)
           (-90.0 90.0)
           (-90.0 90.0)
  end
  begin
     id 19
     name lradius
     direction 1 -4.48956e-011 6.2882e-027   
     length 3.17112   
     axis 180 -30 -90   XYZ
    dof rx
    limits (-10.0 170.0)
  end
  begin
     id 20
     name lwrist
     direction 1 -4.49014e-011 1.73219e-026   
     length 1.58556   
     axis -1.04724e-014 90 90   XYZ
    dof ry
    limits (-180.0 0.0)
 end
  begin
     id 21 
     name lhand
     direction 1 -4.49312e-011 3.46438e-026   
     length 0.632691   
     axis -2.21057e-014 90 90   XYZ
    dof rx rz
    limits (-90.0 90.0)
           (-45.0 45.0)
  end
  begin
     id 22 
     name lfingers
     direction 1 -4.48894e-011 6.92876e-026   
     length 0.510091   
     axis -4.42114e-014 90 90   XYZ
    dof rx
    limits (0.0 90.0)
  end
  begin
     id 23
     name lthumb
     direction 0.707107 -6.34705e-011 0.707107   
     length 0.732392   
     axis -90 45 2.85299e-015   XYZ
    dof rx rz
    limits (-45.0 45.0)
           (-45.0 45.0)
  end
  begin
     id 24 
     name rclavicle
     direction -0.954374 0.280496 -0.102435   
     length 3.25419  
     axis 0 0 0   XYZ 
    dof ry rz
    limits (-10.0 20.0)
           (-20.0 0.0)
  end
  begin
     id 25 
     name rhumerus
     direction -1 -4.48994e-011 -1.07204e-017  
     length 5.8712   
     axis 180 30 90   XYZ
    dof rx ry rz
    limits (-90.0 60.0)
           (-90.0 90.0)
           (-90.0 90.0)
  end
  begin
     id 26 
     name rradius
     direction -1 -4.48972e-011 5.89292e-027   
     length 3.37589   
     axis 180 30 90   XYZ
    dof rx
    limits (-10.0 170.0)
  end
  begin
     id 27 
     name rwrist
     direction -1 -4.48942e-011 1.73219e-026   
     length 1.68794   
     axis -1.04724e-014 -90 -90   XYZ
    dof ry
    limits (-180.0 0.0)
  end
  begin
     id 28
     name rhand
     direction -1 -4.48514e-011 3.46438e-026   
     length 0.603257   
     axis -2.21057e-014 -90 -90   XYZ
    dof rx rz
    limits (-90.0 90.0)
           (-45.0 45.0)
  end
  begin
     id 29
     name rfingers
     direction -1 -4.50028e-011 6.92876e-026   
     length 0.486362   
     axis -4.42114e-014 -90 -90   XYZ
    dof rx
    limits (0.0 90.0)
  end
  begin
     id 30
     name rthumb
     direction -0.707107 -6.34926e-011 0.707107   
     length 0.698321   
     axis -90 -45 -2.85299e-015   XYZ
    dof rx rz
    limits (-45.0 45.0)
           (-45.0 45.0)
  end
:hierarchy
  begin
    root lhipjoint rhipjoint lowerback
    lhipjoint lfemur
    lfemur ltibia
    ltibia lfoot
    lfoot ltoes
    rhipjoint rfemur
    rfemur rtibia
    rtibia rfoot
    rfoot rtoes
    lowerback upperback
    upperback thorax
    thorax lowerneck lclavicle rclavicle
    lowerneck upperneck
    upperneck head
    lclavicle lhumerus
    lhumerus lradius
    lradius lwrist
    lwrist lhand lthumb
    lhand lfingers
    rclavicle rhumerus
    rhumerus rradius
    rradius rwrist
    rwrist rhand rthumb
    rhand rfingers
  end

#!OML:ASF I:\Segmentation\Patient Classification 1\Patient 1\Session 1\Patient1.ASF
:FULLY-SPECIFIED
:DEGREES
4195
root -13.2522 18.2947 10.9579 -353.425 59.6773 -4.68476
lowerback -8.62526 -0.623403 -1.55565
upperback 2.54137 -0.7096 0.793524
thorax 7.55549 -0.43962 1.60515
lowerneck -18.6113 6.89112 4.27796
upperneck 14.5631 9.26314 -5.32303
head 8.0107 4.12577 -1.30141
rclavicle -1.64594e-013 3.598e-014
rhumerus -37.7902 -13.1696 -72.9983
rradius 31.2753
rwrist 18.2952
rhand -16.0535 26.7558
rfingers 7.12502
rthumb 10.1486 -2.97944
lclavicle -1.64594e-013 3.598e-014
lhumerus -16.7065 -7.365 83.8806
lradius 38.303
lwrist 9.98051
lhand -9.04017 34.1666
lfingers 7.12502
lthumb 16.9078 63.4506
rfemur -27.9942 9.70171 15.2085
rtibia 49.609
rfoot -13.02 0.0186957
rtoes 36.6252
lfemur -22.6422 1.58343 -27.6511
ltibia 29.3325
lfoot -21.0081 4.37837
ltoes -5.94244
4196
root -13.1832 18.2868 10.9939 -353.622 60.3768 -4.88735
lowerback -8.61779 -0.693519 -1.51726
upperback 2.53621 -0.812176 0.85416
thorax 7.55028 -0.489432 1.63204
lowerneck -18.6891 6.78031 4.15326
upperneck 14.6652 9.12674 -5.21065
head 8.03962 4.06207 -1.25981
rclavicle 2.90226e-014 8.54774e-015
rhumerus -38.0677 -13.1511 -72.8661
rradius 31.2513
rwrist 18.3514
rhand -16.0642 26.6072
rfingers 7.12502
rthumb 10.1382 -3.1285
lclavicle 2.90226e-014 8.54774e-015
lhumerus -16.1702 -7.59247 83.9059
lradius 38.5529
lwrist 9.98819
lhand -9.02915 34.1765
lfingers 7.12502
lthumb 16.9184 63.4597
rfemur -28.5619 10.2655 15.0257
rtibia 48.5763
rfoot -12.8675 1.10309
rtoes 38.65
lfemur -22.3817 1.39518 -27.548
ltibia 29.4451
lfoot -21.1238 3.86996
ltoes -6.07866
4197
root -13.1129 18.2796 11.0292 -353.778 61.0458 -5.06735
lowerback -8.64782 -0.746773 -1.47481
upperback 2.53957 -0.890291 0.887814
thorax 7.57434 -0.526691 1.63157
lowerneck -18.7292 6.65624 4.06121
upperneck 14.6747 8.9617 -5.1139
head 8.03239 3.98743 -1.23443
rclavicle -5.27276e-014 -1.74931e-014
rhumerus -38.3169 -13.175 -72.7717
rradius 31.2039
rwrist 18.3447
rhand -16.1485 26.5159
rfingers 7.12502
rthumb 10.0569 -3.22381
lclavicle -5.27276e-014 -1.74931e-014
lhumerus -15.634 -7.84612 83.9022
lradius 38.8222
lwrist 10.0391
lhand -9.0345 34.2174
lfingers 7.12502
lthumb 16.9132 63.5009
rfemur -29.1557 10.7747 14.8363
rtibia 47.5211
rfoot -12.4983 2.16182
rtoes 40.288
lfemur -22.1237 1.18257 -27.4587
ltibia 29.5215
lfoot -21.2392 3.41467
ltoes -6.35893
4198
root -13.0417 18.2742 11.0634 -353.873 61.6836 -5.20236
lowerback -8.70183 -0.787951 -1.44433
upperback 2.54636 -0.948884 0.896573
thorax 7.61484 -0.554465 1.61425
lowerneck -18.7372 6.52867 4.0126
upperneck 14.606 8.78098 -5.04092
head 7.99629 3.90732 -1.22749
rclavicle 1.14798e-014 2.28602e-014
rhumerus -38.5333 -13.2207 -72.7122
rradius 31.1397
rwrist 18.2844
rhand -16.2464 26.4962
rfingers 7.12502
rthumb 9.96249 -3.24806
lclavicle 1.14798e-014 2.28602e-014
lhumerus -15.1151 -8.11791 83.8789
lradius 39.1162
lwrist 10.1604
lhand -9.23358 34.163
lfingers 7.12502
lthumb 16.7216 63.4628
rfemur -29.7792 11.2042 14.6384
rtibia 46.4488
rfoot -11.9219 3.10432
rtoes 41.6019
lfemur -21.8578 0.895416 -27.3869
ltibia 29.5402
lfoot -21.3439 3.06185
ltoes -6.80592
4199
root -12.97 18.2709 11.0965 -353.926 62.2877 -5.29113
lowerback -8.74413 -0.818769 -1.43357
upperback 2.54647 -0.990473 0.890768
thorax 7.64077 -0.574317 1.5953
lowerneck -18.7263 6.40931 4.00453
upperneck 14.5192 8.60576 -4.99569
head 7.95465 3.82991 -1.23586
rclavicle 2.93704e-014 3.18055e-015
rhumerus -38.731 -13.2605 -72.6727
rradius 31.07
rwrist 18.1811
rhand -16.2967 26.5674
rfingers 7.12502
rthumb 9.91389 -3.17914
lclavicle 2.93704e-014 3.18055e-015
lhumerus -14.6443 -8.38021 83.8589
lradius 39.4385
lwrist 10.3438
lhand -9.86544 33.8338
lfingers 7.12502
lthumb 16.1132 63.1839
rfemur -30.4141 11.5573 14.4419
rtibia 45.3641
rfoot -11.1735 3.85371
rtoes 42.6555
lfemur -21.5605 0.525629 -27.3291
ltibia 29.4848
lfoot -21.4267 2.82984
ltoes -7.37724
4200
root -12.8981 18.2699 11.1286 -353.952 62.8531 -5.33122
lowerback -8.75065 -0.838742 -1.44997
upperback 2.53778 -1.01455 0.881469
thorax 7.63635 -0.586525 1.59101
lowerneck -18.7206 6.30296 4.01871
upperneck 14.4786 8.45069 -4.97778
head 7.93269 3.75972 -1.25326
rclavicle -3.3048e-014 1.94809e-014
rhumerus -38.9171 -13.2694 -72.6414
rradius 31.0046
rwrist 18.0325
rhand -16.3051 26.6891
rfingers 7.12502
rthumb 9.90584 -3.05788
lclavicle -3.3048e-014 1.94809e-014
lhumerus -14.2353 -8.59833 83.8635
lradius 39.7863
lwrist 10.5456
lhand -10.6481 33.4496
lfingers 7.12502
lthumb 15.3595 62.8592
rfemur -31.0288 11.8605 14.2508
rtibia 44.2686
rfoot -10.3131 4.38909
rtoes 43.5273
lfemur -21.2077 0.113702 -27.2897
ltibia 29.3517
lfoot -21.4828 2.69401
ltoes -7.99419
4201
root -12.8257 18.2707 11.1601 -353.953 63.3777 -5.32226
lowerback -8.73182 -0.856327 -1.50296
upperback 2.52539 -1.03253 0.887091
thorax 7.61416 -0.597712 1.62428
lowerneck -18.7387 6.21208 3.99941
upperneck 14.4978 8.33157 -4.97366
head 7.93568 3.70203 -1.26386
rclavicle 1.31695e-014 -1.19271e-014
rhumerus -39.0733 -13.2155 -72.6017
rradius 30.9428
rwrist 17.8633
rhand -16.3049 26.7668
rfingers 7.12502
rthumb 9.90605 -2.98019
lclavicle 1.31695e-014 -1.19271e-014
lhumerus -13.8841 -8.74034 83.912
lradius 40.1543
lwrist 10.7577
lhand -11.143 33.3978
lfingers 7.12502
lthumb 14.8828 62.8433
rfemur -31.6114 12.1338 14.0658
rtibia 43.1591
rfoot -9.40829 4.73796
rtoes 44.2589
lfemur -20.8009 -0.273485 -27.2766
ltibia 29.1493
lfoot -21.504 2.58492
ltoes -8.50797
4202
root -12.7529 18.2726 11.1915 -353.919 63.8668 -5.27241
lowerback -8.71145 -0.876523 -1.58592
upperback 2.5153 -1.05184 0.910753
thorax 7.59468 -0.611448 1.6933
lowerneck -18.7952 6.135 3.90538
upperneck 14.5601 8.24954 -4.95191
head 7.95737 3.65817 -1.25058
rclavicle -3.75206e-014 3.77691e-015
rhumerus -39.1878 -13.1092 -72.55
rradius 30.8795
rwrist 17.7226
rhand -16.3363 26.7456
rfingers 7.12502
rthumb 9.87571 -3.00276
lclavicle -3.75206e-014 3.77691e-015
lhumerus -13.5721 -8.81301 83.9965
lradius 40.532
lwrist 10.9798
lhand -11.4179 33.5778
lfingers 7.12502
lthumb 14.6179 63.0426
rfemur -32.1707 12.3781 13.8934
rtibia 42.0288
rfoot -8.52057 4.92201
rtoes 44.8634
lfemur -20.364 -0.587054 -27.2897
ltibia 28.8934
lfoot -21.4791 2.43612
ltoes -8.79962
4203
root -12.6803 18.2747 11.2231 -353.848 64.3332 -5.19011
lowerback -8.70152 -0.8897 -1.67479
upperback 2.51265 -1.06027 0.924518
thorax 7.58871 -0.620032 1.75674
lowerneck -18.8938 6.05775 3.77938
upperneck 14.6534 8.16967 -4.89576
head 7.99382 3.6156 -1.21929
rclavicle -2.69353e-014 -1.19271e-015
rhumerus -39.2734 -13.0227 -72.5098
rradius 30.8122
rwrist 17.6471
rhand -16.4436 26.6722
rfingers 7.12502
rthumb 9.77222 -3.08111
lclavicle -2.69353e-014 -1.19271e-015
lhumerus -13.2729 -8.8755 84.0681
lradius 40.9062
lwrist 11.1641
lhand -11.3859 33.8948
lfingers 7.12502
lthumb 14.6487 63.3573
rfemur -32.7145 12.5772 13.7426
rtibia 40.8692
rfoot -7.68698 4.94722
rtoes 45.3559
lfemur -19.9226 -0.803823 -27.3241
ltibia 28.6057
lfoot -21.4008 2.21698
ltoes -8.92641
4204
root -12.6087 18.2767 11.2545 -353.749 64.7878 -5.09426
lowerback -8.69703 -0.894413 -1.74989
upperback 2.5123 -1.05694 0.910501
thorax 7.58691 -0.621559 1.78483
lowerneck -19.012 5.97795 3.68422
upperneck 14.7697 8.07338 -4.8133
head 8.04082 3.56877 -1.18566
rclavicle -4.47266e-015 1.19271e-015
rhumerus -39.3442 -12.9861 -72.504
rradius 30.7412
rwrist 17.6364
rhand -16.6044 26.6313
rfingers 7.12502
rthumb 9.61702 -3.1292
lclavicle -4.47266e-015 1.19271e-015
lhumerus -12.9928 -8.95471 84.0899
lradius 41.2775
lwrist 11.2864
lhand -11.128 34.1856
lfingers 7.12502
lthumb 14.8971 63.6299
rfemur -33.2476 12.715 13.6265
rtibia 39.6727
rfoot -6.91236 4.81505
rtoes 45.7623
lfemur -19.4979 -0.908923 -27.3688
ltibia 28.3087
lfoot -21.2663 1.91121
ltoes -8.98628
4205
root -12.5377 18.2784 11.2855 -353.653 65.2331 -5.01493
lowerback -8.68895 -0.902144 -1.80344
upperback 2.50864 -1.05903 0.879735
thorax 7.57892 -0.624206 1.78231
lowerneck -19.1435 5.9105 3.63683
upperneck 14.9011 7.98013 -4.72589
head 8.09725 3.52609 -1.15711
rclavicle -2.11706e-014 2.0276e-014
rhumerus -39.3925 -12.9671 -72.5337
rradius 30.6749
rwrist 17.652
rhand -16.7146 26.665
rfingers 7.12502
rthumb 9.51077 -3.10036
lclavicle -2.11706e-014 2.0276e-014
lhumerus -12.7546 -9.02146 84.0679
lradius 41.6525
lwrist 11.3932
lhand -11.1651 33.9915
lfingers 7.12502
lthumb 14.8615 63.4385
rfemur -33.7665 12.7886 13.5612
rtibia 38.4355
rfoot -6.19305 4.52501
rtoes 46.1315
lfemur -19.097 -0.915764 -27.4072
ltibia 28.017
lfoot -21.089 1.52551
ltoes -8.99469
